<?xml version="1.0" standalone="no"?>
<!DOCTYPE svg PUBLIC "-//W3C//DTD SVG 20010904//EN"
 "http://www.w3.org/TR/2001/REC-SVG-20010904/DTD/svg10.dtd">
<svg version="1.0" xmlns="http://www.w3.org/2000/svg"
 width="16.000000pt" height="16.000000pt" viewBox="0 0 16.000000 16.000000"
 preserveAspectRatio="xMidYMid meet">
<metadata>
Created by potrace 1.11, written by Peter Selinger 2001-2013
</metadata>
<g transform="translate(0.000000,16.000000) scale(0.002286,-0.002286)"
fill="#000000" stroke="none">
<path d="M2197 5696 c-714 -255 -1299 -465 -1301 -467 -3 -4 393 -3442 397
-3445 1 -1 499 -277 1105 -614 l1104 -611 1103 611 1104 612 6 41 c27 188 392
3403 387 3408 -7 7 -2565 920 -2592 925 -8 2 -599 -205 -1313 -460z m327 -936
c342 -29 581 -154 693 -366 61 -114 78 -198 78 -384 0 -142 -3 -176 -23 -245
-36 -126 -85 -209 -177 -301 -93 -94 -185 -150 -322 -194 -137 -44 -253 -60
-495 -67 l-218 -6 0 -464 0 -463 -205 0 -205 0 0 1250 0 1250 378 0 c207 0
431 -5 496 -10z m2146 0 c233 -18 402 -58 525 -127 70 -38 165 -137 198 -205
79 -164 78 -400 -1 -568 -53 -113 -192 -222 -324 -252 -26 -6 -47 -16 -45 -22
2 -5 33 -17 68 -26 225 -57 376 -203 420 -405 17 -79 17 -275 0 -345 -7 -30
-31 -93 -53 -140 -75 -158 -238 -289 -433 -350 -143 -44 -237 -50 -777 -50
l-508 0 0 1250 0 1250 398 0 c218 0 458 -5 532 -10z"/>
<path d="M2060 3990 l0 -440 173 0 c239 0 362 24 481 94 114 67 176 217 163
395 -14 187 -101 299 -272 351 -78 23 -250 39 -427 40 l-118 0 0 -440z"/>
<path d="M4150 4084 l0 -346 298 5 c322 5 354 9 451 66 82 48 131 153 131 277
0 165 -79 262 -255 310 -66 18 -282 34 -472 34 l-153 0 0 -346z"/>
<path d="M4150 3006 l0 -396 225 0 c346 0 463 19 575 92 96 62 144 169 143
318 0 188 -81 294 -270 352 -61 19 -98 22 -370 25 l-303 5 0 -396z"/>
</g>
</svg>
